<?xml version="1.0" encoding="utf-8"?>
<!-- Generator: Adobe Illustrator 15.0.0, SVG Export Plug-In  -->
<!DOCTYPE svg PUBLIC "-//W3C//DTD SVG 1.1//EN" "http://www.w3.org/Graphics/SVG/1.1/DTD/svg11.dtd" [
	<!ENTITY ns_flows "http://ns.adobe.com/Flows/1.0/">
]>
<svg version="1.1"
	 xmlns="http://www.w3.org/2000/svg" xmlns:xlink="http://www.w3.org/1999/xlink" xmlns:a="http://ns.adobe.com/AdobeSVGViewerExtensions/3.0/"
	 x="0px" y="0px" width="300px" height="300px" viewBox="-0.341 -1.916 300 300" enable-background="new -0.341 -1.916 300 300"
	 xml:space="preserve">
<defs>
</defs>
<path fill="#FFFFFF" d="M120.489,92.711c1.304,3.096,14.246,30.196,15.92,35.057c-0.499,0.051-1.29-0.237-1.601,0.029
	c-6.46-10.267-12.029-21.329-18.447-31.637C116.709,95.173,119.289,92.334,120.489,92.711"/>
<path fill="#FFFFFF" d="M183.293,127.877c-0.352,2.129,4.959,17.27,13.354,12.809c-0.004,1.669-2.621,5.703-5.704,5.703
	c-9.657,0.002-9.85-13.851-9.638-15.925C181.412,129.397,181.988,127.458,183.293,127.877"/>
<path fill="#FFFFFF" d="M143.098,159.762c-3.371-4.169-8.021-5.063-12.011-2.688c-0.654,0.382-1.038,1.031-1.902,0.994
	c-0.368-2.717,2.696-5.897,4.688-6.854c6.11-2.142,11.768,0.33,11.415,8.915C144.722,161.309,143.33,161.055,143.098,159.762"/>
<path fill="#FFFFFF" d="M88.739,152.637c-0.873,0.908-2.242,1.663-4.061,2.121c0.249-0.65,0.797-2.529-0.93-3.566
	c-0.259,1.6-1.373,2.049-2.225,2.615c-0.125,0.537-0.086,0.709,0,0.987c-0.938-0.671-0.873-0.739-1.299-1.87
	c0.52-0.291,0.708-0.713,0.752-1.197c0.227-2.39-1.987-3.121-3.796-2.408c-0.105-0.318-0.358-0.696-0.394-0.986
	c1.17-0.957,3.139-1.037,4.566-0.753C84.434,148.187,86.451,151.77,88.739,152.637"/>
<path fill="#FFFFFF" d="M91.704,154.262c0.442,0.618,0.435,0.635,0.317,1.252c-0.084,0.438-0.576,1.619-0.875,2.025
	c-1.39,1.908-4.192,3.396-6.532,2.57c-1.429-0.508-4.774-1.442-3.519-3.703c3.601,1.643,6.601-1.372,8.889-2.932
	C90.68,153.793,91.233,154.153,91.704,154.262"/>
<path fill="#FFFFFF" d="M139.136,166.651c-0.418,3.56-8.175,3.59-10.442,1.445c-0.038,1.186-0.578,2.108-1.146,2.885
	c-0.863,1.172-2.907,3.188-5.097,3.146c-7.851-0.155-10.758-10.347-8.782-11.677c1.494,5.837,6.785,6.199,8.857,5.07
	c2.004-1.09,2.021-4.856,2.45-7.375c1.042,0.078,2.537-0.375,3.634-0.289c0.199,0.916,0.564,2.594,0.968,3.502
	c0.73,1.627,2.396,3.426,4.698,3.806C137.039,167.627,137.552,166.911,139.136,166.651"/>
<path fill="#FFFFFF" d="M129.7,171.966c1.662,0.593,1.048,2.677,3.537,2.53c1.851-0.109,1.698-1.928,2.516-3.172
	c2.45,1.988-0.357,7.354-3.01,7.566c-0.548,0.039-1.586-0.105-2.185-0.498C128.603,177.137,127.729,174.255,129.7,171.966"/>
<path fill="#FFFFFF" d="M153.318,185.653c-0.031,0.805-0.549,1.988-0.549,3.436c-0.521,10.379,5.218,10.598,8.46,14.521
	c1.399,1.687,5.663,6.847,5.727,10.826c0.033,1.642,0.033,5.938-2.134,6.02c-0.526-0.035-0.059-1.6-2.544-4.473
	C139.245,196.921,151.229,183.649,153.318,185.653"/>
<path fill="#FFFFFF" d="M142.472,198.046c-1.182,0.015-3.307-2.672-5.81-1.437c-0.761,0.373-0.68,1.31-1.463,1.881
	c-0.631-0.098-0.794-0.605-1.171-0.93c0.292-3,2.392-5.414,5.003-5.856c2.249-0.373,3.022,2.657,3.541,4.631
	C142.735,196.94,142.956,197.745,142.472,198.046"/>
<path fill="#FFFFFF" d="M134.948,199.358c-0.12,5.201,4.01,4.465,5.348,3.131c0.625-0.959,1.226-1.391,1.659-1.135
	c0.927,3.373-1.368,4.896-2.293,5.765c-1.123,1.231-5.415,2.243-6.819-3.093C132.328,202.083,133.358,199.012,134.948,199.358"/>
<path fill="#FFFFFF" d="M133.993,212.733c1.424,0.873,2.759,1.418,4.249,0.858c0.724-0.276,1.195-1.144,2.141-0.858
	c0.938,2.131-1.501,4.564-3.358,4.965c-2.411,0.525-5.194-1.522-5.424-3.871c-0.094-0.926-0.158-3.125,0.913-3.143
	C133.488,210.667,133.517,212.038,133.993,212.733"/>
<path fill="#FFFFFF" d="M197.475,225.01c-2.098-2.668-8.424-6.117-11.619-8.148c-4.037-2.549-8.232-4.676-9.342-9.25
	c4.861,2.406,9.28,4.14,11.286,9.201c2.669,1.775,1.597-5.646,1.185-7.099c-1.293-4.517-3.131-6.69-6.604-9.172
	c-2.22-1.589-11.863-8.813-13.483-9.813c-3.949-2.436-4.274-4.363-4.586-4.365c-2.622-0.018-7.247,8.049,6.496,17.93
	c1.382,0.996,2.79,1.791,4.181,2.521c-0.078,0.006-0.14,0.031-0.229,0.029c0.262,11.874,0.199,16.117,15.268,23.826
	c7.752,4.939,5.134,9.926,6.938,11.355C200.998,240.965,203.026,230.491,197.475,225.01"/>
<path fill="#FFFFFF" d="M112.901,219.287c-3.562-1.433-5.007,1.586-2.703,5.028c1.272,1.524,5.863,8.061-1.575,8.396
	c4.926-6.348-11.302-9.436-2.728-15.383c2.55-1.309,4.963-0.447,6.022,0.242C112.416,217.895,113.271,218.594,112.901,219.287"/>
<path fill="#FFFFFF" d="M163.317,226.461c0.433,0.116,0.231,0.803,0.429,1.129c1.327,2.621,5.348,6.153,9.186,6.479
	c1.188,0.104,2.958,0.058,4.001-0.525c0.222,2.242-2.74,3.91-4.097,4.262c-1.481,0.383-3.014,0.288-5.556-0.181
	c-3.414-0.623-7.509-4.185-10.64-2.222c-1.24,0.775-3.056,2.262-2.357,5.568c-4.577,0.993-4.682-4.107-4.535-6.115
	c-8.729,0.729-12.41,20.897-35.566,17.119c-2.573-0.414-7.611-2.147-9.608-3.718c-15.785-12.397,1.012-23.366,3.594-17.067
	c-7.816,3.545-3.331,18.447,17.146,8.674c2.164,2.957-0.544,6.086-2.661,7.959c7.876,0.145,16.174-11.869,18.477-13.926
	c2.791-2.48,8.862-6.787,13.261-4.299c1.152-3.839-12.364-6.887-7.252-13.632c2.118,6.279,13.335,5.128,14.191,10.997
	C162.035,226.042,162.759,226.221,163.317,226.461"/>
<path fill="#FFFFFF" d="M138.6,228.94c0.783,0.515,1.255,1.209,1.37,2.064c0.358,2.622-3.792,3.744-4.094,0.747
	C137.442,231.834,138.673,230.291,138.6,228.94"/>
<path fill="#FFFFFF" d="M159.646,236.557c0.493,3.309,5.316,7.291,7.388,6.991c-0.971-2.667,1.743-4.845,5.592-4.155
	c2.471,0.43,3.607,2.545,5.571,3.508c2.384,1.168,4.461,2.135,7.513-0.153c2.484,2.547-0.849,6.563-3.968,6.866
	c-2.752,0.267-5.356-1.025-6.487-2.582c-1.101-1.523-1.144-3.274-2.063-4.666c-1.271-0.887-4.72-1.463-5.052,0.892
	c0.26,1.501,2.795,0.47,4.119,0.015c0.42,3.125-3.322,6.764-6.886,6.875c-0.665,0.023-1.668-0.055-2.193-0.244
	c-2.985-1.125-5.915-3.682-6.203-7.479C156.78,239.885,157.368,236.425,159.646,236.557"/>
<path fill="#FFFFFF" d="M132.827,234.069c0.828,0.398,1.229,1.951,1.189,2.768c-0.053,1.002-1.354,3.035-2.271,3.191
	c-1.535,0.262-2.372-1.002-2.658-2.855C131.231,237.147,132.583,236.229,132.827,234.069"/>
<path fill="#FFFFFF" d="M155.61,242.711c0.094,1.512,0.079,3.031,0.982,4.367c1.68,2.479,4.354,5.865,11.428,4.081
	c-0.575,3.655-5.104,5.601-7.961,4.812c-6.144-1.689-6.123-6.23-6.229-8.546C153.767,246.059,154.082,242.989,155.61,242.711"/>
<path fill="#FFFFFF" d="M117.199,100.865c-7.15,11.274-11.93-5.5-8.459-6.63C108.902,94.433,111.216,102.996,117.199,100.865"/>
<path fill="#FFFFFF" d="M75.515,187.403c1.405-0.338,0.418-4.489,1.547-5.563c1.601-0.833,4.495-1.954,5.377,0.697
	c1.511-0.214,3.542-1.07,4.071-1.733c4.116-5.205-1.251-9.043-2.035-9.463c-1.235-0.666-4.563-1.582-5.094,0.066
	c0.42,0.777,1.677,0.229,2.577,0.512c0.946,0.303,1.953,0.966,2.364,1.611c0.604,0.947,0.472,2.408-0.861,2.596
	c-0.737,0.109-2.736-0.979-4.669-0.941c-3.569,0.069-9.521,2.616-10.901-0.498c-0.937-2.135,2.236-13.799,3.809-18.576
	c0.231-0.698,1.443-2.617,0.271-2.832c-0.039-0.008-0.084-0.01-0.125-0.012c-0.177,0.016-0.218,0.189-0.38,0.227
	c-0.836,2.301-6.266,19.063-6.8,21.865c-0.45,2.367-0.26,4.24,0.848,5.388c1.183,1.22,2.487,1.104,4.07,0.909
	c2.662-0.319,4.017,0.104,4.783,2.238C74.779,185.049,74.492,186.657,75.515,187.403"/>
<path fill="#FFFFFF" d="M134.408,190.528c-1.014,2.631-3.024,1.496-5.507,2.123c-2.477,0.633-4.042,1.436-5.784,3.772
	c-3.507,4.7-5.88,11.313-18.524,13.531c-2.464,0.428-4.417,0.563-6.746,1.526c-14.208,5.86-13.882-4.334-14.347-4.834
	c-1.458-1.576-1.713,4.479-1.353,5.373c0.811,1.996,1.219,3.137,4.595,4.674c3.086,1.4,8.643,1.033,11.001,0.715
	c8.659-1.164,18.944-2.268,22.565-4.227c9.182-4.963,15.031-20.459,15.564-22.568C135.388,190.59,134.897,190.555,134.408,190.528"
	/>
<path fill="#FFFFFF" d="M83.695,203.221c1.555-1.83,5.988-2.949,6.867-6.238c0.074-0.273-0.054-1.66-0.53-1.508
	c-0.766-0.139-0.731,0.73-1.407,1.03c-1.275,0.563-3.021,0.123-4.879,0.188c-2.65,0.093-5.538,0.65-5.599,2.646
	c1.805,1.532,4.011,1.564,4.479,5.412C83.438,204.748,83.434,203.836,83.695,203.221"/>
<path fill="#FFFFFF" d="M83.545,193.016c1.754-0.082,3.325,0.875,4.867,0.774c1.186-0.084,4.062-0.595,4.49-3.306
	c-3.718,0.179-6.149-0.264-8.991-1.328c-1.204-0.445-2.441-1.629-3.725-1.286c-1.441,0.659-3.098,2.356-5.814,2.407
	c0.357,1.627,1.677,3.429,3.466,3.761C79.776,194.401,81.557,193.116,83.545,193.016"/>
<path fill="#FFFFFF" d="M120.527,90.262c-1.986-1.72-3.245-6.19-5.22-7.913C114.204,83,104.9,87.864,103.786,88.44
	c-2.212,1.146-18.844,9.222-22.483,11.797c-0.552,0.434,0.411,0.644,0.816,0.782c5.367-2.96,17.959-7.339,24.955-10.493
	c0.319,0.036,0.605,1.642,1.1,1.508c2.056-0.947,3.745-0.985,6.061-1.646c0.938,0.793,1.044,2.326,2.163,2.951
	C117.917,91.613,118.842,91.107,120.527,90.262"/>
<path fill="#FFFFFF" d="M175.442,66.869c1.773,0.438,4.419-3.888,4.485-7.16c0.102-4.879-5.775-9.438-12.846-4.303
	C167.316,55.587,178.155,52.504,175.442,66.869"/>
<path fill="#FFFFFF" d="M177.252,112.563c3.668-8.049-0.099-18.561-5.039-22.408c-1.303-1.321-6.373-4.693-8.19-2.806
	c0.286,0.713,7.219,3.155,8.013,8.924c-5.913-6.183-23.034-6.974-26.989-14.185c-1.384,1.05,0.708,4.861,3.935,8.278
	c-6.745-0.697-12.98-9.974-12.283-19.493c-0.309-0.159-0.386,0.197-0.943,0.268c-0.871,2.016-1.304,13.359,2.05,16.911
	c-0.906,0.104-1.106,0.608-2.721,0.125c-0.938,7.242,15.332,8.689,18.854,3.755C159.097,97.212,177.038,96.857,177.252,112.563"/>
<path fill="#FFFFFF" d="M52.991,113.522c26.874-16.12,83.12-44.273,83.84-44.555c6.933-16.265,25.917-17.634,30.951-16.83
	c1.053,0.171,2.632,0.646,2.821-0.079c0.007-1.313-23.918-8.216-35.567,10.611c-0.608,0.983-0.825,2.053-1.942,2.678
	c-7.91,4.454-51.387,29.077-73.729,41.959c-14.295,8.241-18.733,14.183-18.579,14.63c1.171,0.091,1.908-0.976,2.672-1.568
	C46.135,118.291,49.622,115.541,52.991,113.522"/>
<path fill="#FFFFFF" d="M75.336,147.814c0.639-0.208,1.081-0.92,1.615-1.422c5.049-4.2,8.494-0.353,11.347,1.988
	c2.516,2.063,2.714,2.724,5.938,3.819c4.176,1.433,10.099-1.635,14.862-0.434c0.554,0.144,1.132,0.131,1.118-1.147
	c-0.002-0.394-0.072-0.597-1.111-1.104c-8.931-1.954-17.058-10.083-25.389-10.535c-3.782-0.208-5.498,1.723-8.321,2.96
	c-1.816,0.796-3.885,0.957-5.84-0.815c-0.243-0.259-0.457-0.652-0.653-1.224c-1.062,0.48-1.062,1.539-0.757,2.816
	C68.544,144.374,71.191,149.203,75.336,147.814"/>
<path fill="#FFFFFF" d="M246.446,182.057c0.989,1.764-0.833,9.357-5.163,6.115c-4.882-4.408,6.239-14.92-4.418-24.709
	c-5.034-6,1.313-13.945,3.195-19.08c6.012-14.674-3.947-22.801-11.635-28.614c-10.798-6.646-20.959-9.404-32.062-10.445
	c-0.337-0.07-5.712-0.769-7.586-2.062c-4.063-3.391,0.563-8.726-6.426-13.7c6.187-0.241,8.054,4.474,6.4-0.297
	c-2.692-3.916-9.983-4.418-9.407-10.821c2.347,4.765,13.883,6.146,12.406,14.125c10.505-16.649-15.891-13.278-9.618-24.003
	c-12.716,5.806-6.139,13.274-4.973,15.577c-2.408-1.07-3.103-3.059-8.779-0.029c2.202,0.523,5.929,3.465,8.308,6.862
	c3.413,4.691,2.147,10.167,6.712,13.938c1.798,1.49,5.265,2.563,9.174,2.462c-2.023,1.445-3.309,7.341,3.874,13.22
	c10.234,8.381,8.523,14.71,7.938,17.9c1.912-2.08,5.373-5.358,5.373-9.744c0-6.807-5.739-7.378-6.162-12.307
	c3.291,2.859,6.334,1.564,12.284,7.618c-0.504-6.355-6.263-9.034-11.549-10.935c13.995,1.12,24.303,12.4,24.921,15.813
	c7.265,13.198-9.802,26.417-5.435,35.566c2.994,6.279,8.119,6.659,7.913,14.363c-0.87-5.585-7.685-3.526-11.089-12.449
	c-4.823,13.412,11.089,13.698,13.063,26.479C240.493,204.766,256.608,192.001,246.446,182.057"/>
<path fill="#FFFFFF" d="M150.626,159.768c2.417-6.66-4.891-10.97-6.305-9.768c6.848,6.634,0.794,10.947,1.725,20.195
	c-0.879,2.92-4.021,2.324-5.992,3.83c-1.845,1.414-1.898,4.172-2.361,6.986c-0.907,3.572-5.825,3.663-7.739-0.07
	c-0.149,1.416,0.2,3.481,0.944,4.965c1.025,2.031,3.903,2.533,6.916,1.896c3.063-0.646,3.629-5.131,5.246-7.664
	c2.883-3.496,5.204-2.949,6.449-5.373C151.731,170.557,149.608,163.639,150.626,159.768"/>
<path fill="#FFFFFF" d="M214.411,177.856c-10.754-7.631,6.184-20.946,9.646-33.295c1.081-3.867,1.077-10.763-2.868-13.868
	c-0.217,2.54,0.165,8.03-5.628,13.588c3.336-8.118,3.072-13.412-0.023-17.326c-0.679-1.329-1.427-2.345-2.816-2.971
	c7.638,20.018-26.526,27.585-16.955,39.042c-7.169,0.972-8.445,19.598-24.432,12.623c-25.529-15.482,11.946-40.036,5.539-51.829
	c-2.629-4.827-6.354-5.576-5.441-9.616c-1.01,0.438-4.614,2.203,0.706,8.965c2.529,3.822,1.912,5.807-0.359,9.324
	c-0.649-4.702-8.106-3.25-6.877-9.988c-5.581,4.59,1.705,8.41,4.76,14.116c-7.231-2.345-31.411-12.867-37.844-56.323
	c-0.997,0.141-0.784,29.936,16.905,50.343c-2.806-1.034-19.979-2.055-23.432,5.29c2.963,7.825,29.635-6.876,33.56,18.307
	c-2.645,0-1.397-3.789-6.196-8.049c-12.853-10.591-25.7,6.778-35.369-13.569c-0.775-4.05-3.873-4.792-4.339-4.725
	c-1.151,1.687,2.232,9.733,0.123,8.726c-4.128-1.972-15.779-6.221-17.549-6.775c-3.536-1.106-48.838-16.167-53.438-4.908
	c0,2.127,18.67,8.136,26.797,12.231c1.363-2.949,6.188-2.963,9.156-2.833c4.016,0.163,7.384,0.764,10.631,1.504
	c4.896,1.119,9.654,2.792,14.231,4.501c4.767,1.773,9.277,3.94,13.977,4.727c0.351,0.154,0.432,0.545,0.952,0.548
	c0.745-0.344,1.481-0.429,2.172-0.46c1.058,2.095,2.228,4.042,1.887,6.831c2.643-0.979,3.815,2.488,4.883,2.613
	c0.959,0.117,1.23-1.121,1.948-1.85c0.826-0.854,4.872-6.304,11.3-6.699c4.942-0.495,13.345,2.364,14.473,13.906
	c0.283,21.043,21.1,24.716,29.798,18.85c10.851-7.31,6.564-13.902,16.053-15.177c-9.592,18.938,11.485,18.864,10.285,26.142
	c-3.722-4.789-14.096-5.727-15.924-11.229c-1.895,6.557-1.942,9.794,10.348,16.178c13.692,6.907,11.805,29.887,31.342,17.355
	C221.633,208.41,238.282,194.803,214.411,177.856"/>
<path fill="#FFFFFF" d="M140.928,283.399c0-5.342,4.324-9.674,9.669-9.674c5.357,0,9.691,4.332,9.691,9.674
	c0,5.353-4.334,9.688-9.691,9.688C145.252,293.088,140.928,288.751,140.928,283.399 M157.555,278.038
	c-0.927,0.045-2.303,0.875-2.303,1.803c0,0.65,0.873,1.352,1.532,1.352c0.715,0,2.104-1.176,2.104-1.893
	C158.889,278.778,158.358,278.038,157.555,278.038 M150.83,274.79c-0.78,0-1.463,1.046-1.463,1.738c0,0.896-0.685,1.986,1.609,1.856
	c1.366-0.077,1.463-0.86,1.463-1.534C152.439,276.117,151.656,274.79,150.83,274.79 M146.212,278.727
	c-0.366-0.16-0.591-0.328-1.011-0.328c-1.507,0-2.793,1.16-2.793,2.672c0,0.634,0.8,0.844,1.43,0.844
	c1.404,0,2.634-1.072,2.634-2.479C146.472,279.092,146.494,278.936,146.212,278.727 M157.625,284.623
	c-1.177,0-2.537,0.485-2.537,1.712c0,0.783,0.724,1.324,1.479,1.324c1.126,0,2.322-0.594,2.322-1.762
	C158.889,285.178,158.308,284.623,157.625,284.623 M149.394,283.342c0.32,0.829,0.974,1.469,2.24,1.096
	c1.281-0.359,1.21-1.287,0.877-2.514c-0.221-0.83-0.889-1.334-1.749-1.334C149.553,280.59,148.938,282.235,149.394,283.342
	 M145.489,284.541c-0.36-0.422-0.648-0.751-1.221-0.751c-0.774,0-1.255,0.813-1.255,1.587c0,1.489,1.315,3.228,2.807,3.228
	c0.792,0,1.503-0.674,1.503-1.465C147.322,286.151,146.025,285.356,145.489,284.541 M153.397,289.614
	c-0.563-0.672-0.969-1.373-1.94-1.373c-0.86,0-1.556,0.609-1.556,1.373c0,1.195,1.069,2.248,2.457,2.248
	C153.351,291.862,153.62,290.469,153.397,289.614"/>
<path fill="#FFFFFF" d="M131.938,270.274c-1.363-1.197-4.385-2.881-7.723-3.715c-8.075-2.012-12.811,1.131-14.004,5.908
	c-0.961,3.852,0.594,7.077,5.133,10.153c3.175,2.179,4.498,3.106,4.15,4.521c-0.302,1.207-1.754,1.723-4.021,1.164
	c-2.768-0.693-4.628-2-5.691-2.816l-3.019,5.548c1.613,1.239,3.823,2.452,7.135,3.274c6.98,1.75,12.048-0.988,13.269-5.873
	c1.034-4.131-1.438-7.484-5.691-10.293c-2.862-1.847-3.908-2.947-3.58-4.268c0.35-1.4,1.828-1.969,4.359-1.336
	c2.775,0.691,5.274,2.242,6.752,3.505L131.938,270.274z"/>
<polygon fill="#FFFFFF" points="98.22,289.207 108.902,262.749 101.822,259.889 91.122,286.343 "/>
<path fill="#FFFFFF" d="M68.367,260.567l9.583,5.767l3.063-5.093l-3.277-1.967l2.542-4.213c0.396,0.057,1.279,0.485,2.177,1.02
	c4.02,2.406,5.379,6.843,2.64,11.398c-2.981,4.965-7.593,5.076-11.632,2.649c-2.787-1.666-4.164-3.122-5.201-4.526l-4.457,4.438
	c0.913,1.381,3.08,3.479,6.383,5.467c7.927,4.766,16.851,4.242,21.981-4.225c2.13-3.496,2.83-7.375,1.831-10.928
	c-0.934-3.42-3.507-6.602-8.309-9.481c-3.188-1.927-7.063-3.197-9.271-3.696L68.367,260.567z"/>
<polygon fill="#FFFFFF" points="55.865,264.994 74.206,243.141 68.355,238.218 50.015,260.094 "/>
<polygon fill="#FFFFFF" points="63.931,234.268 51.957,219.995 47.05,224.116 54.114,232.526 37.155,246.758 42.07,252.616 "/>
<polygon fill="#FFFFFF" points="50.013,217.235 40.417,201.266 34.924,204.569 40.583,213.983 21.613,225.374 25.544,231.932 "/>
<path fill="#FFFFFF" d="M12.06,207.565l14.8-4.816c8.719-2.823,11.52-8.064,9.107-15.491c-2.481-7.624-8.06-10.422-16.451-7.688
	l-14.965,4.855l2.353,7.268l15.414-5.002c4.311-1.396,6.866-0.674,7.806,2.219c0.937,2.882-0.926,5.054-5.017,6.387l-15.398,4.995
	L12.06,207.565z"/>
<path fill="#FFFFFF" d="M28.888,148.167l-0.511-7.412L0,144.177l0.7,10.028l7.753,1.604c3.059,0.629,7.148,1.297,10.673,1.846
	l0.01,0.142c-3.448,0.847-7.155,1.944-10.271,2.953l-7.53,2.419l0.717,10.26l28.591-0.238l-0.484-7.022l-10.229,0.28
	c-3.239,0.105-7.499,0.242-11.523,0.369v-0.086c3.863-0.935,8.016-2.106,11.043-3.043l9.719-3.08l-0.431-5.967l-10.107-2.125
	c-3.194-0.701-7.518-1.609-11.372-2.226l-0.009-0.108c4.455-0.305,8.245-0.646,11.479-0.961L28.888,148.167z"/>
<path fill="#FFFFFF" d="M4.734,113.705l14.8,4.803c8.701,2.835,14.05,0.242,16.474-7.175c2.47-7.627-0.399-13.175-8.783-15.9
	l-14.97-4.868L9.891,97.84l15.396,4.999c4.317,1.401,5.958,3.494,5.023,6.38c-0.936,2.879-3.705,3.554-7.814,2.218L7.1,106.432
	L4.734,113.705z"/>
<path fill="#FFFFFF" d="M45.422,88.771l-5.882-3.816c-3.888-2.526-7.546-4.785-10.877-6.726l0.071-0.123
	c3.644,0.724,7.871,1.264,11.274,1.583l10.589,1.108l4.387-6.761L31.06,58.494l-3.813,5.849l5.654,3.673
	c3.58,2.323,7.005,4.378,10.389,6.067l-0.06,0.102c-3.5-0.762-7.614-1.437-10.829-1.694l-9.813-0.965l-4.915,7.56l23.945,15.546
	L45.422,88.771z"/>
<rect x="36.186" y="54.588" transform="matrix(0.7314 0.6819 -0.6819 0.7314 53.3812 -18.7176)" fill="#FFFFFF" width="28.534" height="7.641"/>
<path fill="#FFFFFF" d="M78.53,52.056l-10.7-28.051l-6.33,5.123l4.743,10.763c1.283,2.915,2.725,5.993,4.379,9.132l-0.072,0.056
	c-2.836-2.417-5.405-4.343-8.123-6.273l-9.417-6.809l-6.516,5.279l25.008,16.47L78.53,52.056z"/>
<polygon fill="#FFFFFF" points="96.868,21.573 87.65,26.066 85.629,21.926 95.399,17.165 92.659,11.553 76.02,19.668 88.525,45.312 
	105.704,36.94 102.96,31.33 92.659,36.357 90.36,31.628 99.575,27.126 "/>
<path fill="#FFFFFF" d="M110.435,11.483c0.35-0.188,1.061-0.462,2.453-0.829c2.452-0.642,4.134,0.172,4.681,2.236
	c0.559,2.064-0.684,3.856-3.47,4.6l-1.929,0.519L110.435,11.483z M109.054,35.601l7.32-1.961l-2.777-10.341l1.192-0.322
	c2.28-0.605,3.477-0.196,5.118,2.909c1.706,3.179,2.989,5.149,3.629,5.835l7.553-2.028c-0.829-0.92-2.804-4.676-4.389-7.258
	c-1.34-2.211-2.812-3.697-4.852-3.989l-0.04-0.154c1.94-1.355,3.858-4.488,2.944-7.921c-0.732-2.703-2.205-4.405-4.339-5.286
	c-2.484-1.012-5.675-0.786-9.902,0.348c-3.683,0.995-6.746,2.096-8.745,2.976L109.054,35.601z"/>
<path fill="#FFFFFF" d="M135.424,28.095c1.648,0.782,5.022,1.565,8.453,1.44c8.32-0.294,12.008-4.61,11.836-9.536
	c-0.144-3.972-2.533-6.646-7.746-8.346c-3.638-1.21-5.173-1.737-5.219-3.194c-0.045-1.251,1.205-2.151,3.536-2.229
	c2.843-0.105,4.993,0.637,6.24,1.132l1.39-6.158c-1.903-0.764-4.356-1.307-7.758-1.187C138.948,0.271,134.823,4.283,135,9.332
	c0.15,4.235,3.451,6.784,8.307,8.317c3.272,0.985,4.577,1.754,4.623,3.116c0.045,1.434-1.201,2.393-3.82,2.484
	c-2.851,0.099-5.691-0.703-7.454-1.51L135.424,28.095z"/>
<polygon fill="#FFFFFF" points="163.688,1.024 160.213,29.351 167.798,30.274 171.269,1.949 "/>
<polygon fill="#FFFFFF" points="177.297,31.983 184.68,33.957 190.412,12.591 197.567,14.505 199.224,8.312 177.661,2.535 
	175.992,8.733 183.024,10.607 "/>
<path fill="#FFFFFF" d="M205.39,28.683l3.332-4.05c1.089-1.267,2.496-3.194,3.604-4.523l0.088,0.031
	c-0.342,1.713-0.879,4.039-1.191,5.674l-1.059,5.191L205.39,28.683z M208.634,36.542l-1.265,6.738l7.426,3.625l4.854-29.382
	l-9.157-4.461l-19.939,22.019l7.1,3.465l4.353-5.232L208.634,36.542z"/>
<polygon fill="#FFFFFF" points="219.101,50.63 225.2,55.233 238.518,37.568 244.428,42.019 248.299,36.9 230.468,23.471 
	226.604,28.592 232.415,32.964 "/>
<polygon fill="#FFFFFF" points="255.326,44.081 234.463,63.538 239.674,69.128 260.543,49.669 "/>
<path fill="#FFFFFF" d="M246.13,74.297c0.183,1.812,1.241,5.098,3.114,7.987c4.539,6.98,10.147,7.914,14.271,5.223
	c3.337-2.156,4.399-5.583,3.177-10.924c-0.841-3.75-1.172-5.33,0.037-6.119c1.059-0.686,2.472-0.082,3.74,1.87
	c1.552,2.401,2.017,4.62,2.235,5.94l5.996-1.989c-0.331-2.017-1.122-4.407-2.979-7.262c-3.919-6.043-9.49-7.508-13.72-4.758
	c-3.57,2.314-4.04,6.462-2.853,11.413c0.83,3.309,0.854,4.821-0.296,5.56c-1.206,0.782-2.669,0.194-4.089-1.993
	c-1.57-2.396-2.339-5.248-2.556-7.162L246.13,74.297z"/>
<polygon fill="#FFFFFF" points="290.651,100.689 263.516,109.506 265.87,116.771 293.013,107.958 "/>
<path fill="#FFFFFF" d="M268.916,122.167c-0.601,1.723-1.031,5.152-0.548,8.559c1.153,8.25,5.84,11.455,10.723,10.771
	c3.937-0.551,6.333-3.205,7.492-8.571c0.829-3.751,1.191-5.33,2.63-5.529c1.237-0.174,2.267,0.976,2.584,3.287
	c0.397,2.821-0.105,5.039-0.478,6.324l6.273,0.737c0.561-1.979,0.842-4.476,0.365-7.854c-1.002-7.13-5.425-10.806-10.422-10.106
	c-4.206,0.592-6.396,4.146-7.409,9.137c-0.647,3.349-1.265,4.731-2.614,4.923c-1.417,0.19-2.516-0.958-2.866-3.545
	c-0.4-2.837,0.097-5.737,0.714-7.573L268.916,122.167z"/>
<polygon fill="#FFFFFF" points="270.553,147.819 269.255,166.405 275.646,166.852 276.419,155.884 298.479,157.425 299.014,149.811 
	"/>
<path fill="#FFFFFF" d="M278.871,180.52l4.615,2.514c1.451,0.813,3.613,1.832,5.132,2.678l-0.024,0.084
	c-1.735-0.005-4.128-0.091-5.786-0.091l-5.306-0.046L278.871,180.52z M271.781,185.202l-6.871,0.054l-2.127,7.978l29.77-0.834
	l2.631-9.842l-25.419-15.375l-2.051,7.633l5.98,3.271L271.781,185.202z"/>
<path fill="#FFFFFF" d="M258.262,201.827l6.177,3.295c4.108,2.167,7.941,4.113,11.437,5.75l-0.073,0.132
	c-3.685-0.421-7.938-0.583-11.362-0.604l-10.645-0.184l-3.777,7.122l25.189,13.399l3.285-6.164l-5.95-3.174
	c-3.766-2-7.372-3.742-10.877-5.137l0.047-0.092c3.553,0.453,7.708,0.777,10.937,0.734l9.856,0.115l4.236-7.965l-25.201-13.393
	L258.262,201.827z"/>
<path fill="#FFFFFF" d="M257.971,243.227c-0.202,0.344-0.634,0.959-1.445,1.822c-3.138,3.362-7.134,4.174-11.395,0.194
	c-4.714-4.386-4.204-8.921-0.78-12.507c0.353-0.375,0.829-0.885,1.17-1.129L257.971,243.227z M246.662,222.247
	c-1.16,0.915-3.029,2.564-5.521,5.234c-3.807,4.08-6.215,8.244-6.57,12.191c-0.317,3.514,0.951,7.708,5.204,11.672
	c3.839,3.565,7.912,4.602,11.644,3.781c3.361-0.746,6.251-2.732,9.983-6.736c2.301-2.472,4.369-5.018,5.736-7.053L246.662,222.247z"
	/>
<polygon fill="#FFFFFF" points="242.89,265.647 225.717,242.856 219.613,247.454 236.785,270.25 "/>
<path fill="#FFFFFF" d="M212.305,266.376l1.137,5.114c0.325,1.643,0.983,3.938,1.338,5.64l-0.073,0.038
	c-1.14-1.322-2.651-3.18-3.743-4.439l-3.433-4.025L212.305,266.376z M204.106,264.089l-4.538-5.146l-7.426,3.617l20.172,21.924
	l9.15-4.471l-5.067-29.272l-7.109,3.464l1.452,6.656L204.106,264.089z"/>
<polygon fill="#FFFFFF" points="174.265,285.653 184.222,283.169 185.33,287.641 174.791,290.274 176.299,296.329 194.255,291.854 
	187.358,264.161 168.821,268.785 170.331,274.841 181.452,272.067 182.717,277.166 172.775,279.659 "/>
<path fill="#FFFFFF" d="M211.932,80.266c3.901-1.997,14.579-5.263,22.687-2.781c6.179,0.764,10.245,13.01,10.433,14.603
	c0.58,4.939,0.042,9.744-9.136,6.99c-1.239-0.331-5.296-3.161-20.76-2.328c30.481,2.699,28.979,14.02,29.776,17.054
	c0.613,6.916-1.209,16.332-1.53,13.713c-2.813-22.785-34.979-26.934-36.896-27.025c-1.727-0.147-3.462-5.174,0.3-7.037
	c1.418-0.724,4.219-1.445,6.059-1.905c0.604-0.149,7.978-1.11,19.101,1.094c3.271,0.655,4.648-3.482,0.429-6.829
	c-11.688-3.98-25.33,2.701-26.923,3.232c-2.506-0.424,13.292-40.241-26.653-36.846c1.191-4.85,25.617-8.652,33.115,9.724
	C213.682,66.221,213.693,77.938,211.932,80.266"/>
<path fill="#FFFFFF" d="M213.596,215.231c-0.968-0.424-4.695-1.42-8.827-2.867c6.24-12.512-13.642-20.047-16.206-21.193
	c-2.583-1.152-5.623-2.622-6.479-6.548c-3.518,5.581-3.692,11.916,3.465,14.97c5.889,2.844,13.819,5.991,17.404,12.114
	c-4.604-1.718-9.3-3.955-10.988-6.558c-0.291,0.049-2.479,12.043,14.681,16.351c8.369,2.094,9.313,7.899,9.414,9.644
	C219.351,229.967,222.888,219.251,213.596,215.231"/>
</svg>
